<?xml version="1.0" encoding="UTF-8"?>
<svg version="1.1" xmlns="http://www.w3.org/2000/svg" width="16" height="16">
<path d="M0 0 C0.86625 -0.00773438 1.7325 -0.01546875 2.625 -0.0234375 C5 0.375 5 0.375 6.7890625 1.5859375 C8.39038277 3.95175906 8.40035579 5.53515158 8.375 8.375 C8.38273437 9.24125 8.39046875 10.1075 8.3984375 11 C8 13.375 8 13.375 6.7890625 15.1640625 C4.42324094 16.76538277 2.83984842 16.77535579 0 16.75 C-0.86625 16.75773437 -1.7325 16.76546875 -2.625 16.7734375 C-5 16.375 -5 16.375 -6.7890625 15.1640625 C-8.39038277 12.79824094 -8.40035579 11.21484842 -8.375 8.375 C-8.38273438 7.50875 -8.39046875 6.6425 -8.3984375 5.75 C-8 3.375 -8 3.375 -6.7890625 1.5859375 C-4.42324094 -0.01538277 -2.83984842 -0.02535579 0 0 Z " fill="#ADB2B9" transform="translate(8,-0.375)"/>
<path d="M0 0 C0 0.66 0 1.32 0 2 C-1.65 2.33 -3.3 2.66 -5 3 C-4.85769192 4.41702513 -4.71099254 5.8336096 -4.5625 7.25 C-4.44068359 8.43335938 -4.44068359 8.43335938 -4.31640625 9.640625 C-4.02365007 11.82364639 -3.57935581 13.8773182 -3 16 C-5.86724686 15.42655063 -6.8614515 15.1385485 -9 13 C-9.30078125 10.72265625 -9.30078125 10.72265625 -9.3125 8.0625 C-9.32925781 7.18722656 -9.34601562 6.31195312 -9.36328125 5.41015625 C-9 3 -9 3 -7.6796875 1.1953125 C-5.17471893 -0.58729304 -2.98354055 -0.1989027 0 0 Z " fill="#B0B5BC" transform="translate(9,0)"/>
<path d="M0 0 C0.33 1.65 0.66 3.3 1 5 C-0.65 5.33 -2.3 5.66 -4 6 C-3.67 8.31 -3.34 10.62 -3 13 C-3.66 13 -4.32 13 -5 13 C-8.06517632 6.02109572 -8.06517632 6.02109572 -7.8125 2.0625 C-6.20460537 -2.01907866 -3.65595359 -0.86588374 0 0 Z " fill="#706463" transform="translate(11,3)"/>
<path d="M0 0 C0.33 0 0.66 0 1 0 C1.1875 2.875 1.1875 2.875 1 6 C0.01 6.66 -0.98 7.32 -2 8 C-2.33 8.99 -2.66 9.98 -3 11 C-3.66 10.67 -4.32 10.34 -5 10 C-5 8.35 -5 6.7 -5 5 C-3.35 4.67 -1.7 4.34 0 4 C0 2.68 0 1.36 0 0 Z " fill="#B4A3A1" transform="translate(12,4)"/>
</svg>
