<?xml version="1.0" encoding="UTF-8"?>
<!DOCTYPE svg PUBLIC "-//W3C//DTD SVG 1.1//EN" "http://www.w3.org/Graphics/SVG/1.1/DTD/svg11.dtd">
<svg xmlns="http://www.w3.org/2000/svg" version="1.1" width="32px" height="32px" style="shape-rendering:geometricPrecision; text-rendering:geometricPrecision; image-rendering:optimizeQuality; fill-rule:evenodd; clip-rule:evenodd" xmlns:xlink="http://www.w3.org/1999/xlink">
<g><path style="opacity:1" fill="#269dee" d="M -0.5,-0.5 C 10.1667,-0.5 20.8333,-0.5 31.5,-0.5C 31.5,10.1667 31.5,20.8333 31.5,31.5C 20.8333,31.5 10.1667,31.5 -0.5,31.5C -0.5,20.8333 -0.5,10.1667 -0.5,-0.5 Z"/></g>
<g><path style="opacity:1" fill="#d2e9fb" d="M 16.5,13.5 C 15.7101,14.7942 14.7101,15.9609 13.5,17C 15.0973,20.2521 14.5973,23.0854 12,25.5C 8.55708,24.1359 8.72375,23.4692 12.5,23.5C 12.6602,21.8008 12.4935,20.1341 12,18.5C 9.82657,21.277 9.32657,21.1103 10.5,18C 9.4216,17.3261 8.75493,16.3261 8.5,15C 9.30086,12.4024 10.6342,10.0691 12.5,8C 9.63282,8.18099 7.13282,9.34765 5,11.5C 4.5,11.1667 4,10.8333 3.5,10.5C 6.81172,8.01009 10.4784,6.34343 14.5,5.5C 13.1381,8.73084 11.4715,11.8975 9.5,15C 12.0953,15.6004 14.4287,15.1004 16.5,13.5 Z"/></g>
<g><path style="opacity:1" fill="#cbe7fa" d="M 16.5,13.5 C 16.8656,12.3054 17.699,11.6387 19,11.5C 21.5527,13.288 24.386,14.4547 27.5,15C 28.9295,16.8803 28.5962,18.3803 26.5,19.5C 26.0941,18.4425 26.0941,17.1092 26.5,15.5C 25.5,15.5 24.5,15.5 23.5,15.5C 23.9492,17.9775 23.2825,19.9775 21.5,21.5C 21.5,19.1667 21.5,16.8333 21.5,14.5C 19.9547,13.5481 18.288,13.2148 16.5,13.5 Z"/></g>
<g><path style="opacity:1" fill="#daeefc" d="M 16.5,16.5 C 19.1505,16.9576 19.6505,17.9576 18,19.5C 16.9614,18.7562 16.4614,17.7562 16.5,16.5 Z"/></g>
</svg>
